mtllib pCylinder16.mtl
usemtl pCylinder16

g pCylinder16
v -9.966264 -7.823198 3.238232
v -5.167686 7.823198 1.679083
v -8.443574 -7.823198 6.134615
v -4.378146 7.823198 3.180912
v -10.43684 -7.823198 -8.940697E-07
v -5.411685 7.823198 -1.192093E-07
v -5.167684 7.823198 -1.679084
v -9.966256 -7.823198 -3.238234
v -8.44357 -7.823198 -6.134615
v -4.378146 7.823198 -3.180912
v -3.193807 7.823198 -4.395898
v -6.159476 -7.823198 -8.477802
v -3.225152 -7.823198 -9.926016
v -1.672303 7.823198 -5.146822
v 2.861023E-06 7.823198 -5.433627
v 2.861023E-06 -7.823198 -10.47914
v 3.225162 -7.823198 -9.926016
v 1.672309 7.823198 -5.146822
v 3.193812 7.823198 -4.395898
v 6.159488 -7.823198 -8.477802
v 8.443576 -7.823198 -6.134615
v 4.378158 7.823198 -3.180912
v 5.167693 7.823198 -1.679084
v 9.966258 -7.823198 -3.238234
v 10.43684 -7.823198 -1.490116E-06
v 5.411696 7.823198 -4.768372E-07
v 5.167693 7.823198 1.679083
v 9.966258 -7.823198 3.238231
v 8.443576 -7.823198 6.134614
v 4.378158 7.823198 3.180911
v 3.193812 7.823198 4.395897
v 6.159488 -7.823198 8.477801
v 3.225162 -7.823198 9.926015
v 1.672309 7.823198 5.146822
v 2.861023E-06 7.823198 5.433628
v 2.861023E-06 -7.823198 10.47914
v 2.861023E-06 -7.823198 10.47914
v -3.225154 -7.823198 9.926016
v 2.861023E-06 7.823198 5.433628
v -1.672303 7.823198 5.146823
v -3.193807 7.823198 4.395899
v -6.159478 -7.823198 8.477803
v -10.31758 -7.8232 -5.960464E-07
v -9.852376 -7.8232 -3.201236
v -10.43684 -7.823198 -8.940697E-07
v -9.966256 -7.823198 -3.238234
v -8.44357 -7.823198 -6.134615
v -8.347096 -7.8232 -6.064528
v -9.852386 -7.8232 3.201235
v -9.966264 -7.823198 3.238232
v -8.443574 -7.823198 6.134615
v -8.347104 -7.8232 6.064528
v -6.089112 -7.8232 8.380946
v -6.159478 -7.823198 8.477803
v -3.225154 -7.823198 9.926016
v -3.188312 -7.8232 9.812613
v -9.536743E-07 -7.8232 10.35942
v 2.861023E-06 -7.823198 10.47914
v -6.089108 -7.8232 -8.380943
v -8.44357 -7.823198 -6.134615
v -6.159476 -7.823198 -8.477802
v -3.225152 -7.823198 -9.926016
v -3.18831 -7.8232 -9.81261
v -9.536743E-07 -7.8232 -10.35942
v 2.861023E-06 -7.823198 -10.47914
v 3.225162 -7.823198 -9.926016
v 3.188308 -7.8232 -9.81261
v 6.089114 -7.8232 -8.380943
v 6.159488 -7.823198 -8.477802
v 8.443576 -7.823198 -6.134615
v 8.34711 -7.8232 -6.064528
v 8.443576 -7.823198 -6.134615
v 9.852397 -7.8232 -3.201237
v 9.966258 -7.823198 -3.238234
v 10.43684 -7.823198 -1.490116E-06
v 10.3176 -7.8232 -1.728535E-06
v 9.852397 -7.8232 3.201233
v 9.966258 -7.823198 3.238231
v 8.443576 -7.823198 6.134614
v 8.34711 -7.8232 6.064526
v 6.089114 -7.8232 8.380942
v 6.159488 -7.823198 8.477801
v 3.225162 -7.823198 9.926015
v 3.188308 -7.8232 9.81261
v -9.536743E-07 -7.8232 10.35942
v 2.861023E-06 -7.823198 10.47914
v -5.167686 7.823198 1.679083
v -4.924903 7.8232 1.600199
v -4.378146 7.823198 3.180912
v -5.411685 7.823198 -1.192093E-07
v -5.157439 7.8232 -1.192093E-07
v -4.924901 7.8232 -1.600199
v -5.167684 7.823198 -1.679084
v -4.378146 7.823198 -3.180912
v -4.172456 7.8232 -3.03147
v -3.043756 7.8232 -4.189375
v -3.193807 7.823198 -4.395898
v -1.672303 7.823198 -5.146822
v -1.593734 7.8232 -4.905021
v 2.861023E-06 7.8232 -5.178351
v 2.861023E-06 7.823198 -5.433627
v -4.924903 7.8232 1.600199
v -4.172458 7.8232 3.031471
v -3.043759 7.8232 4.189377
v -3.193807 7.823198 4.395899
v -1.672303 7.823198 5.146823
v -1.593736 7.8232 4.905022
v 2.861023E-06 7.8232 5.178352
v 2.861023E-06 7.823198 5.433628
v 1.672309 7.823198 5.146822
v 1.593741 7.8232 4.905021
v 3.043765 7.8232 4.189374
v 3.193812 7.823198 4.395897
v 4.378158 7.823198 3.180911
v 4.172465 7.8232 3.031469
v 4.924911 7.8232 1.600198
v 5.167693 7.823198 1.679083
v 4.924911 7.8232 1.600198
v 5.411696 7.823198 -4.768372E-07
v 5.157451 7.8232 -4.768372E-07
v 4.924911 7.8232 -1.600199
v 5.167693 7.823198 -1.679084
v 4.378158 7.823198 -3.180912
v 4.172465 7.8232 -3.03147
v 3.043765 7.8232 -4.189375
v 3.193812 7.823198 -4.395898
v 1.672309 7.823198 -5.146822
v 1.593741 7.8232 -4.905021
v 2.861023E-06 7.8232 -5.178351
v 2.861023E-06 7.823198 -5.433627
v -9.852386 -7.8232 3.201235
v -8.347104 -7.8232 6.064528
v -4.924903 7.8232 1.600199
v -4.172458 7.8232 3.031471
v -10.31758 -7.8232 -5.960464E-07
v -5.157439 7.8232 -1.192093E-07
v -4.924901 7.8232 -1.600199
v -9.852376 -7.8232 -3.201236
v -8.347096 -7.8232 -6.064528
v -4.172456 7.8232 -3.03147
v -3.043756 7.8232 -4.189375
v -6.089108 -7.8232 -8.380943
v -3.18831 -7.8232 -9.81261
v -1.593734 7.8232 -4.905021
v 2.861023E-06 7.8232 -5.178351
v -9.536743E-07 -7.8232 -10.35942
v -3.043759 7.8232 4.189377
v -6.089112 -7.8232 8.380946
v -3.188312 -7.8232 9.812613
v -1.593736 7.8232 4.905022
v 2.861023E-06 7.8232 5.178352
v -9.536743E-07 -7.8232 10.35942
v 3.188308 -7.8232 9.81261
v 1.593741 7.8232 4.905021
v 3.043765 7.8232 4.189374
v 6.089114 -7.8232 8.380942
v 8.34711 -7.8232 6.064526
v 4.172465 7.8232 3.031469
v 4.924911 7.8232 1.600198
v 9.852397 -7.8232 3.201233
v 10.3176 -7.8232 -1.728535E-06
v 5.157451 7.8232 -4.768372E-07
v 4.924911 7.8232 -1.600199
v 9.852397 -7.8232 -3.201237
v 8.34711 -7.8232 -6.064528
v 4.172465 7.8232 -3.03147
v 3.043765 7.8232 -4.189375
v 6.089114 -7.8232 -8.380943
v 3.188308 -7.8232 -9.81261
v 1.593741 7.8232 -4.905021
v 2.861023E-06 7.8232 -5.178351
v -9.536743E-07 -7.8232 -10.35942

vn -0.9051573 0.3069091 0.2941039
vn -0.9051576 0.3069091 0.2941031
vn -0.7702645 0.3057853 0.5596319
vn -0.7702658 0.3057858 0.55963
vn -0.9521002 0.3057861 0
vn -0.9521005 0.3057856 0
vn -0.9051577 0.3069083 -0.2941033
vn -0.9051571 0.3069089 -0.2941045
vn -0.7702649 0.3057854 -0.5596315
vn -0.7702661 0.3057851 -0.5596298
vn -0.5594183 0.3069082 -0.7699732
vn -0.559418 0.3069081 -0.7699733
vn -0.2942154 0.3057852 -0.9055013
vn -0.2942147 0.3057853 -0.9055016
vn 0 0.3069088 -0.951739
vn 0 0.3069086 -0.951739
vn 0.2942152 0.3057856 -0.9055013
vn 0.2942146 0.305785 -0.9055017
vn 0.5594177 0.3069078 -0.7699737
vn 0.5594182 0.3069085 -0.769973
vn 0.7702654 0.3057855 -0.5596306
vn 0.7702657 0.3057846 -0.5596308
vn 0.9051579 0.306908 -0.2941033
vn 0.9051575 0.3069085 -0.2941039
vn 0.9521005 0.3057851 0
vn 0.9521005 0.3057851 0
vn 0.9051579 0.3069078 0.2941033
vn 0.9051574 0.3069088 0.2941038
vn 0.7702655 0.3057856 0.5596305
vn 0.7702656 0.3057844 0.5596309
vn 0.5594179 0.306908 0.7699735
vn 0.5594184 0.3069082 0.7699729
vn 0.2942155 0.3057854 0.9055013
vn 0.2942149 0.3057854 0.9055015
vn 0 0.306908 0.9517392
vn 0 0.3069086 0.951739
vn 0 0.3069086 0.951739
vn -0.2942151 0.3057853 0.9055014
vn 0 0.306908 0.9517392
vn -0.2942149 0.3057851 0.9055015
vn -0.5594184 0.3069088 0.7699727
vn -0.5594178 0.306908 0.7699735
vn -1.599339E-05 -1 0
vn -1.599307E-05 -1 0
vn -1.599338E-05 -1 0
vn -1.599306E-05 -1 0
vn -1.294048E-05 -1 0
vn -1.294044E-05 -1 0
vn -1.430582E-05 -1 0
vn -1.43058E-05 -1 0
vn -1.294063E-05 -1 0
vn -1.29406E-05 -1 0
vn -1.157517E-05 -1 1.07395E-05
vn -1.157519E-05 -1 1.072891E-05
vn 0 -1 1.621376E-05
vn 0 -1 1.623974E-05
vn 0 -1 1.529445E-05
vn 0 -1 1.524829E-05
vn -1.157487E-05 -1 -1.055023E-05
vn -1.294048E-05 -1 0
vn -1.157488E-05 -1 -1.053567E-05
vn 0 -1 -1.499875E-05
vn 0 -1 -1.499018E-05
vn 0 -1 -1.524312E-05
vn 0 -1 -1.524845E-05
vn 0 -1 -1.496394E-05
vn 0 -1 -1.498973E-05
vn 0 -1 -1.361275E-05
vn 0 -1 -1.358379E-05
vn 1.294072E-05 -1 0
vn 1.294072E-05 -1 0
vn 1.294072E-05 -1 0
vn 1.430799E-05 -1 0
vn 1.430801E-05 -1 0
vn 1.599655E-05 -1 0
vn 1.599658E-05 -1 0
vn 1.599568E-05 -1 0
vn 1.599568E-05 -1 0
vn 1.294122E-05 -1 0
vn 1.294125E-05 -1 0
vn 1.157407E-05 -1 1.114216E-05
vn 1.157405E-05 -1 1.111376E-05
vn 0 -1 1.496402E-05
vn 0 -1 1.498981E-05
vn 0 -1 1.440184E-05
vn 0 -1 1.438947E-05
vn 0 1 0
vn 0 1 0
vn 0 1 0
vn 0 1 0
vn 0 1 0
vn 0 1 0
vn 0 1 0
vn 0 1 0
vn 0 1 0
vn 0 1 0
vn 0 1 0
vn 0 1 0
vn 0 1 0
vn 0 1 0
vn 0 1 0
vn 0 1 0
vn 0 1 0
vn 0 1 0
vn 0 1 0
vn 0 1 0
vn 0 1 0
vn 0 1 0
vn 0 1 0
vn 0 1 0
vn 0 1 0
vn 0 1 1.10211E-05
vn 0 1 1.117002E-05
vn 0 1 0
vn 0 1 0
vn 0 1 0
vn 0 1 0
vn 0 1 0
vn 0 1 0
vn 0 1 0
vn 0 1 0
vn 0 1 0
vn 0 1 0
vn 0 1 0
vn 0 1 -1.102102E-05
vn 0 1 -1.116991E-05
vn 0 1 0
vn 0 1 0
vn 0 1 0
vn 0 1 0
vn 0.9028456 -0.3143485 -0.2933509
vn 0.7683125 -0.3132042 -0.5582106
vn 0.9028456 -0.3143482 -0.2933513
vn 0.7683127 -0.3132039 -0.5582104
vn 0.949686 -0.3132036 0
vn 0.9496859 -0.3132039 0
vn 0.9028454 -0.3143482 0.293352
vn 0.9028454 -0.3143482 0.293352
vn 0.7683127 -0.313204 0.5582104
vn 0.7683122 -0.3132037 0.5582112
vn 0.5579889 -0.3143485 0.7680061
vn 0.5579896 -0.3143484 0.7680056
vn 0.2934694 -0.3132039 0.9032049
vn 0.2934686 -0.3132043 0.903205
vn 0 -0.3143488 0.9493076
vn 0 -0.3143484 0.9493077
vn 0.5579889 -0.314349 -0.7680059
vn 0.5579893 -0.3143487 -0.7680058
vn 0.2934686 -0.3132041 -0.903205
vn 0.2934683 -0.3132041 -0.9032052
vn 0 -0.3143483 -0.9493077
vn 0 -0.3143486 -0.9493076
vn -0.2934691 -0.3132041 -0.9032049
vn -0.2934689 -0.3132038 -0.903205
vn -0.5579888 -0.3143482 -0.7680063
vn -0.5579884 -0.3143486 -0.7680065
vn -0.7683117 -0.3132041 -0.5582117
vn -0.7683123 -0.313204 -0.558211
vn -0.9028452 -0.3143483 -0.2933524
vn -0.9028452 -0.3143485 -0.2933523
vn -0.9496859 -0.3132041 0
vn -0.9496859 -0.3132038 0
vn -0.9028451 -0.3143484 0.2933525
vn -0.9028451 -0.3143487 0.2933525
vn -0.7683116 -0.3132043 0.5582117
vn -0.7683121 -0.313204 0.5582113
vn -0.5579885 -0.3143483 0.7680066
vn -0.5579885 -0.3143488 0.7680063
vn -0.293469 -0.3132042 0.9032049
vn -0.2934684 -0.3132037 0.9032053
vn 0 -0.3143488 0.9493076
vn 0 -0.3143484 0.9493077

vt 0.8020111 0.3496183
vt 0.6696069 0.5692627
vt 0.8426427 0.3797147
vt 0.6906747 0.5848675
vt 0.7564231 0.327741
vt 0.6459696 0.5579206
vt 0.6223325 0.5465785
vt 0.7108352 0.3058638
vt 0.6619344 0.2929986
vt 0.5969775 0.5399082
vt 0.5716226 0.5332379
vt 0.6130337 0.2801334
vt 0.5625831 0.2767429
vt 0.5454639 0.53148
vt 0.5193053 0.529722
vt 0.5121326 0.2733525
vt 0.4619508 0.2795584
vt 0.4932859 0.5329397
vt 0.4672664 0.5361575
vt 0.411769 0.2857642
vt 0.3636644 0.3013427
vt 0.4423241 0.5442349
vt 0.4173818 0.5523124
vt 0.3155598 0.3169212
vt 0.2712666 0.3413107
vt 0.3944157 0.5649584
vt 0.3714496 0.5776044
vt 0.2269734 0.3657003
vt 0.1880881 0.3980218
vt 0.3512875 0.5943632
vt 0.3311253 0.611122
vt 0.1492029 0.4303432
vt 0.1170922 0.4694875
vt 0.3144941 0.6313893
vt 0.2978628 0.6516566
vt 0.0849815 0.5086317
vt 0.9517672 0.4843747
vt 0.9175208 0.4470929
vt 0.7472209 0.6390809
vt 0.7294817 0.6197765
vt 0.7117425 0.6004722
vt 0.8832743 0.4098111
vt 0.759678 0.3209584
vt 0.7134432 0.2987709
vt 0.7564231 0.327741
vt 0.7108352 0.3058638
vt 0.6619344 0.2929986
vt 0.6638486 0.2857231
vt 0.8059127 0.343146
vt 0.8020111 0.3496183
vt 0.8426427 0.3797147
vt 0.8471199 0.3736686
vt 0.8883271 0.4041912
vt 0.8832743 0.4098111
vt 0.9175208 0.4470929
vt 0.9221148 0.4407502
vt 0.9559027 0.4773093
vt 0.9517672 0.4843747
vt 0.6142541 0.2726752
vt 0.6619344 0.2929986
vt 0.6130337 0.2801334
vt 0.5625831 0.2767429
vt 0.5630878 0.2692367
vt 0.5119215 0.2657982
vt 0.5121326 0.2733525
vt 0.4619508 0.2795584
vt 0.4610275 0.272092
vt 0.4101336 0.2783859
vt 0.411769 0.2857642
vt 0.3636644 0.3013427
vt 0.3613465 0.2941855
vt 0.3636644 0.3013427
vt 0.3125595 0.3099851
vt 0.3155598 0.3169212
vt 0.2712666 0.3413107
vt 0.2676379 0.3347207
vt 0.2227163 0.3594563
vt 0.2269734 0.3657003
vt 0.1880881 0.3980218
vt 0.1832793 0.3922362
vt 0.1438423 0.4250162
vt 0.1492029 0.4303432
vt 0.1170922 0.4694875
vt 0.1121515 0.4634103
vt 0.08046079 0.5018045
vt 0.0849815 0.5086317
vt 0.5109482 0.7201595
vt 0.5084751 0.7262281
vt 0.5323138 0.726605
vt 0.491162 0.7098374
vt 0.4881441 0.7156217
vt 0.4678132 0.7050152
vt 0.4713759 0.6995152
vt 0.4538657 0.6856796
vt 0.4498209 0.6907986
vt 0.4318285 0.676582
vt 0.4363556 0.6718439
vt 0.4205586 0.653331
vt 0.4166401 0.6590041
vt 0.4014516 0.6414263
vt 0.4047617 0.6348181
vt 0.5084751 0.7262281
vt 0.5304292 0.7328511
vt 0.5523834 0.7394742
vt 0.5536793 0.7330505
vt 0.575873 0.7353919
vt 0.5751882 0.7418801
vt 0.5979929 0.744286
vt 0.5980666 0.7377332
vt 0.6203071 0.73589
vt 0.6208459 0.7423919
vt 0.6436988 0.7404979
vt 0.6425476 0.7340469
vt 0.6640524 0.728082
vt 0.6657959 0.7343686
vt 0.687893 0.7282392
vt 0.6855571 0.7221171
vt 0.687893 0.7282392
vt 0.7055696 0.7122409
vt 0.7084568 0.718091
vt 0.7290205 0.7079428
vt 0.725582 0.7023648
vt 0.7433977 0.6889248
vt 0.747327 0.6941327
vt 0.7656335 0.6803226
vt 0.7612134 0.6754848
vt 0.777421 0.6573302
vt 0.7812119 0.6630895
vt 0.7967904 0.6458564
vt 0.7936285 0.6391756
vt 0.4162263 0.9526284
vt 0.4601325 0.9658739
vt 0.5084751 0.7262281
vt 0.5304292 0.7328511
vt 0.3755658 0.9314163
vt 0.4881441 0.7156217
vt 0.4678132 0.7050152
vt 0.3349052 0.9102041
vt 0.2989203 0.8817718
vt 0.4498209 0.6907986
vt 0.4318285 0.676582
vt 0.2629355 0.8533396
vt 0.2328979 0.8186867
vt 0.4166401 0.6590041
vt 0.4014516 0.6414263
vt 0.2028604 0.784034
vt 0.5523834 0.7394742
vt 0.5040388 0.9791194
vt 0.549646 0.9839319
vt 0.5751882 0.7418801
vt 0.5979929 0.744286
vt 0.5952532 0.9887445
vt 0.6409569 0.9849552
vt 0.6208459 0.7423919
vt 0.6436988 0.7404979
vt 0.6866605 0.9811659
vt 0.7308525 0.9689079
vt 0.6657959 0.7343686
vt 0.687893 0.7282392
vt 0.7750446 0.9566498
vt 0.8161697 0.9363546
vt 0.7084568 0.718091
vt 0.7290205 0.7079428
vt 0.8572949 0.9160594
vt 0.8939065 0.888441
vt 0.747327 0.6941327
vt 0.7656335 0.6803226
vt 0.9305181 0.8608225
vt 0.9613276 0.8268526
vt 0.7812119 0.6630895
vt 0.7967904 0.6458564
vt 0.9921371 0.7928826
f 1/1/1 3/3/3 2/2/2
f 2/2/2 3/3/3 4/4/4
f 1/1/1 2/2/2 5/5/5
f 5/5/5 2/2/2 6/6/6
f 7/7/7 5/5/5 6/6/6
f 8/8/8 5/5/5 7/7/7
f 8/8/8 7/7/7 9/9/9
f 9/9/9 7/7/7 10/10/10
f 11/11/11 9/9/9 10/10/10
f 12/12/12 9/9/9 11/11/11
f 11/11/11 13/13/13 12/12/12
f 14/14/14 13/13/13 11/11/11
f 15/15/15 13/13/13 14/14/14
f 16/16/16 13/13/13 15/15/15
f 16/16/16 15/15/15 17/17/17
f 17/17/17 15/15/15 18/18/18
f 19/19/19 17/17/17 18/18/18
f 20/20/20 17/17/17 19/19/19
f 20/20/20 19/19/19 21/21/21
f 21/21/21 19/19/19 22/22/22
f 23/23/23 21/21/21 22/22/22
f 24/24/24 21/21/21 23/23/23
f 24/24/24 23/23/23 25/25/25
f 25/25/25 23/23/23 26/26/26
f 27/27/27 25/25/25 26/26/26
f 28/28/28 25/25/25 27/27/27
f 28/28/28 27/27/27 29/29/29
f 29/29/29 27/27/27 30/30/30
f 31/31/31 29/29/29 30/30/30
f 32/32/32 29/29/29 31/31/31
f 32/32/32 31/31/31 33/33/33
f 33/33/33 31/31/31 34/34/34
f 35/35/35 33/33/33 34/34/34
f 36/36/36 33/33/33 35/35/35
f 37/37/37 39/39/39 38/38/38
f 38/38/38 39/39/39 40/40/40
f 41/41/41 38/38/38 40/40/40
f 42/42/42 38/38/38 41/41/41
f 42/42/42 41/41/41 3/3/3
f 3/3/3 41/41/41 4/4/4
f 43/43/43 45/45/45 44/44/44
f 44/44/44 45/45/45 46/46/46
f 46/46/46 47/47/47 44/44/44
f 44/44/44 47/47/47 48/48/48
f 49/49/49 45/45/45 43/43/43
f 50/50/50 45/45/45 49/49/49
f 49/49/49 51/51/51 50/50/50
f 52/52/52 51/51/51 49/49/49
f 53/53/53 51/51/51 52/52/52
f 54/54/54 51/51/51 53/53/53
f 53/53/53 55/55/55 54/54/54
f 56/56/56 55/55/55 53/53/53
f 57/57/57 55/55/55 56/56/56
f 58/58/58 55/55/55 57/57/57
f 48/48/48 60/60/60 59/59/59
f 59/59/59 60/60/60 61/61/61
f 61/61/61 62/62/62 59/59/59
f 59/59/59 62/62/62 63/63/63
f 63/63/63 62/62/62 64/64/64
f 64/64/64 62/62/62 65/65/65
f 65/65/65 66/66/66 64/64/64
f 64/64/64 66/66/66 67/67/67
f 67/67/67 66/66/66 68/68/68
f 68/68/68 66/66/66 69/69/69
f 69/69/69 70/70/70 68/68/68
f 68/68/68 72/72/72 71/71/71
f 71/71/71 72/72/72 73/73/73
f 73/73/73 72/72/72 74/74/74
f 74/74/74 75/75/75 73/73/73
f 73/73/73 75/75/75 76/76/76
f 76/76/76 75/75/75 77/77/77
f 77/77/77 75/75/75 78/78/78
f 78/78/78 79/79/79 77/77/77
f 77/77/77 79/79/79 80/80/80
f 80/80/80 79/79/79 81/81/81
f 81/81/81 79/79/79 82/82/82
f 82/82/82 83/83/83 81/81/81
f 81/81/81 83/83/83 84/84/84
f 84/84/84 83/83/83 85/85/85
f 85/85/85 83/83/83 86/86/86
f 87/87/87 89/89/89 88/88/88
f 88/88/88 90/90/90 87/87/87
f 91/91/91 90/90/90 88/88/88
f 92/92/92 90/90/90 91/91/91
f 93/93/93 90/90/90 92/92/92
f 92/92/92 94/94/94 93/93/93
f 95/95/95 94/94/94 92/92/92
f 96/96/96 94/94/94 95/95/95
f 97/97/97 94/94/94 96/96/96
f 96/96/96 98/98/98 97/97/97
f 99/99/99 98/98/98 96/96/96
f 100/100/100 98/98/98 99/99/99
f 101/101/101 98/98/98 100/100/100
f 102/102/102 89/89/89 103/103/103
f 103/103/103 89/89/89 104/104/104
f 104/104/104 89/89/89 105/105/105
f 105/105/105 106/106/106 104/104/104
f 104/104/104 106/106/106 107/107/107
f 107/107/107 106/106/106 108/108/108
f 108/108/108 106/106/106 109/109/109
f 109/109/109 110/110/110 108/108/108
f 108/108/108 110/110/110 111/111/111
f 111/111/111 110/110/110 112/112/112
f 112/112/112 110/110/110 113/113/113
f 113/113/113 114/114/114 112/112/112
f 112/112/112 114/114/114 115/115/115
f 115/115/115 114/114/114 116/116/116
f 116/116/116 114/114/114 117/117/117
f 117/117/117 119/119/119 118/118/118
f 118/118/118 119/119/119 120/120/120
f 120/120/120 119/119/119 121/121/121
f 121/121/121 119/119/119 122/122/122
f 122/122/122 123/123/123 121/121/121
f 121/121/121 123/123/123 124/124/124
f 124/124/124 123/123/123 125/125/125
f 125/125/125 123/123/123 126/126/126
f 126/126/126 127/127/127 125/125/125
f 125/125/125 127/127/127 128/128/128
f 128/128/128 127/127/127 129/129/129
f 129/129/129 127/127/127 130/130/130
f 131/131/131 133/133/133 132/132/132
f 132/132/132 133/133/133 134/134/134
f 131/131/131 135/135/135 133/133/133
f 133/133/133 135/135/135 136/136/136
f 135/135/135 137/137/137 136/136/136
f 138/138/138 137/137/137 135/135/135
f 138/138/138 139/139/139 137/137/137
f 137/137/137 139/139/139 140/140/140
f 139/139/139 141/141/141 140/140/140
f 142/142/142 141/141/141 139/139/139
f 142/142/142 143/143/143 141/141/141
f 141/141/141 143/143/143 144/144/144
f 143/143/143 145/145/145 144/144/144
f 146/146/146 145/145/145 143/143/143
f 147/147/147 132/132/132 134/134/134
f 148/148/148 132/132/132 147/147/147
f 148/148/148 147/147/147 149/149/149
f 149/149/149 147/147/147 150/150/150
f 151/151/151 149/149/149 150/150/150
f 152/152/152 149/149/149 151/151/151
f 152/152/152 151/151/151 153/153/153
f 153/153/153 151/151/151 154/154/154
f 155/155/155 153/153/153 154/154/154
f 156/156/156 153/153/153 155/155/155
f 156/156/156 155/155/155 157/157/157
f 157/157/157 155/155/155 158/158/158
f 159/159/159 157/157/157 158/158/158
f 160/160/160 157/157/157 159/159/159
f 160/160/160 159/159/159 161/161/161
f 161/161/161 159/159/159 162/162/162
f 163/163/163 161/161/161 162/162/162
f 164/164/164 161/161/161 163/163/163
f 164/164/164 163/163/163 165/165/165
f 165/165/165 163/163/163 166/166/166
f 167/167/167 165/165/165 166/166/166
f 168/168/168 165/165/165 167/167/167
f 168/168/168 167/167/167 169/169/169
f 169/169/169 167/167/167 170/170/170
f 171/171/171 169/169/169 170/170/170
f 172/172/172 169/169/169 171/171/171
