mtllib pCylinder15.mtl
usemtl pCylinder15

g pCylinder15
v -1.325874 -1.391746 1.325873
v -1.658953 -0.4639152 1.658949
v -1.907349E-06 -1.391746 1.875067
v -1.907349E-06 -0.4639152 2.346107
v -2.346106 -0.4639152 -5.960464E-08
v -1.875065 -1.391746 -1.192093E-07
v -1.658953 -0.4639152 -1.658949
v -1.325874 -1.391746 -1.325873
v -1.907349E-06 -0.4639152 -2.346107
v -1.907349E-06 -1.391746 -1.875067
v 1.658949 -0.4639152 -1.658949
v 1.325872 -1.391746 -1.325873
v 2.346106 -0.4639152 -5.960464E-08
v 1.875067 -1.391746 -1.192093E-07
v 1.658949 -0.4639152 1.658949
v 1.325872 -1.391746 1.325873
v -1.907349E-06 -0.4639152 2.346107
v -1.907349E-06 -1.391746 1.875067
v 1.929415 0.4639155 0
v 1.364305 0.4639155 -1.364305
v 2.346106 1.391746 5.960464E-08
v 1.658949 1.391746 -1.658949
v 1.658949 1.391746 1.658949
v 1.364305 0.4639155 1.364305
v -1.907349E-06 1.391746 2.346107
v -1.907349E-06 0.4639155 1.929418
v -1.907349E-06 0.4639155 -1.929418
v -1.907349E-06 1.391746 -2.346107
v -1.364307 0.4639155 -1.364305
v -1.658951 1.391746 -1.658949
v -1.929417 0.4639155 -5.960464E-08
v -2.346106 1.391746 0
v -1.364307 0.4639155 1.364305
v -1.658951 1.391746 1.658949
v -1.907349E-06 0.4639155 1.929418
v -1.907349E-06 1.391746 2.346107
v -1.907349E-06 -1.391746 1.875067
v -1.907349E-06 -1.391746 -5.960464E-08
v -1.325874 -1.391746 1.325873
v 1.325872 -1.391746 1.325873
v 1.875067 -1.391746 -1.192093E-07
v 1.325872 -1.391746 -1.325873
v -1.907349E-06 -1.391746 -1.875067
v -1.325874 -1.391746 -1.325873
v -1.875065 -1.391746 -1.192093E-07
v -1.658951 1.391746 1.658949
v -1.907349E-06 1.391746 5.960464E-08
v -1.907349E-06 1.391746 2.346107
v 1.658949 1.391746 1.658949
v 2.346106 1.391746 5.960464E-08
v 1.658949 1.391746 -1.658949
v -1.907349E-06 1.391746 -2.346107
v -1.658951 1.391746 -1.658949
v -2.346106 1.391746 0

vn -0.6506756 -0.452495 0.6098111
vn -0.7076412 -0.02503457 0.7061283
vn -0.02889457 -0.452495 0.8912988
vn -0.001068866 -0.0250348 0.999686
vn -0.9996859 -0.02503527 -0.00106876
vn -0.8913001 -0.4524923 -0.02889395
vn -0.7061297 -0.02503513 -0.7076398
vn -0.6098133 -0.4524916 -0.6506759
vn 0.001068859 -0.02503384 -0.999686
vn 0.02889466 -0.4524934 -0.8912995
vn 0.7076406 -0.02503453 -0.7061289
vn 0.650675 -0.4524941 -0.6098124
vn 0.9996861 -0.02503128 0.001068319
vn 0.8912985 -0.4524956 0.02889408
vn 0.7061288 -0.02503679 0.7076406
vn 0.6098105 -0.4524977 0.6506742
vn -0.001068866 -0.0250348 0.999686
vn -0.02889457 -0.452495 0.8912988
vn 1 0 0
vn 0.707107 0 -0.7071066
vn 0.9120122 -0.4095911 0.0216523
vn 0.6602024 -0.4095837 -0.6295823
vn 0.6295813 -0.4095864 0.6602017
vn 0.7071071 0 0.7071065
vn -0.02165197 -0.4095875 0.9120139
vn 0 0 1
vn 0 0 -1
vn 0.02165201 -0.4095873 -0.9120139
vn -0.7071075 0 -0.707106
vn -0.6295813 -0.4095877 -0.660201
vn -1 0 0
vn -0.9120147 -0.4095855 -0.02165211
vn -0.7071072 0 0.7071064
vn -0.6602015 -0.4095878 0.6295806
vn 0 0 1
vn -0.02165197 -0.4095875 0.9120139
vn 0 -1 0
vn 0 -1 0
vn 0 -1 0
vn 0 -1 0
vn 0 -1 0
vn 0 -1 0
vn 0 -1 0
vn 0 -1 0
vn 0 -1 0
vn 0 1 0
vn 0 1 0
vn 0 1 0
vn 0 1 0
vn 0 1 0
vn 0 1 0
vn 0 1 0
vn 0 1 0
vn 0 1 0

vt 0.6158954 0.2379321
vt 0.6158956 0.2227964
vt 0.5888326 0.2379314
vt 0.588833 0.2227957
vt 0.6429581 0.2227963
vt 0.6429582 0.2379321
vt 0.6700205 0.2227964
vt 0.6700205 0.2379321
vt 0.6970829 0.2227965
vt 0.6970828 0.2379323
vt 0.7241453 0.2227968
vt 0.7241451 0.2379325
vt 0.7512077 0.2227973
vt 0.7512075 0.237933
vt 0.7782703 0.2227977
vt 0.7782701 0.2379335
vt 0.8053328 0.222798
vt 0.8053327 0.2379338
vt 0.7512079 0.2076615
vt 0.7241455 0.2076611
vt 0.7512082 0.1925258
vt 0.7241457 0.1925253
vt 0.7782707 0.1925263
vt 0.7782705 0.207662
vt 0.8053331 0.1925265
vt 0.8053329 0.2076623
vt 0.6970829 0.2076608
vt 0.6970831 0.1925251
vt 0.6700206 0.2076606
vt 0.6700206 0.1925249
vt 0.642958 0.2076605
vt 0.642958 0.1925247
vt 0.6158957 0.2076606
vt 0.6158959 0.1925249
vt 0.5888333 0.2076599
vt 0.5888337 0.1925241
vt 0.7164761 0.104669
vt 0.7164761 0.1414556
vt 0.7424882 0.1154434
vt 0.690464 0.1154434
vt 0.6796895 0.1414556
vt 0.690464 0.1674678
vt 0.7164761 0.1782421
vt 0.7424882 0.1674678
vt 0.7532628 0.1414556
vt 0.6546119 0.1672931
vt 0.6285998 0.1412811
vt 0.6285998 0.1780677
vt 0.6025878 0.1672931
vt 0.5918132 0.1412811
vt 0.6025878 0.115269
vt 0.6285998 0.1044944
vt 0.6546119 0.115269
vt 0.6653865 0.1412811
f 1/1/1 3/3/3 2/2/2
f 2/2/2 3/3/3 4/4/4
f 5/5/5 1/1/1 2/2/2
f 6/6/6 1/1/1 5/5/5
f 7/7/7 6/6/6 5/5/5
f 8/8/8 6/6/6 7/7/7
f 9/9/9 8/8/8 7/7/7
f 10/10/10 8/8/8 9/9/9
f 11/11/11 10/10/10 9/9/9
f 12/12/12 10/10/10 11/11/11
f 13/13/13 12/12/12 11/11/11
f 14/14/14 12/12/12 13/13/13
f 15/15/15 14/14/14 13/13/13
f 16/16/16 14/14/14 15/15/15
f 17/17/17 16/16/16 15/15/15
f 18/18/18 16/16/16 17/17/17
f 13/13/13 11/11/11 19/19/19
f 19/19/19 11/11/11 20/20/20
f 11/11/11 9/9/9 20/20/20
f 19/19/19 20/20/20 21/21/21
f 21/21/21 20/20/20 22/22/22
f 23/23/23 19/19/19 21/21/21
f 24/24/24 19/19/19 23/23/23
f 15/15/15 13/13/13 24/24/24
f 24/24/24 13/13/13 19/19/19
f 25/25/25 24/24/24 23/23/23
f 26/26/26 24/24/24 25/25/25
f 17/17/17 15/15/15 26/26/26
f 26/26/26 15/15/15 24/24/24
f 20/20/20 27/27/27 22/22/22
f 22/22/22 27/27/27 28/28/28
f 27/27/27 29/29/29 28/28/28
f 28/28/28 29/29/29 30/30/30
f 29/29/29 31/31/31 30/30/30
f 30/30/30 31/31/31 32/32/32
f 31/31/31 33/33/33 32/32/32
f 32/32/32 33/33/33 34/34/34
f 33/33/33 35/35/35 34/34/34
f 34/34/34 35/35/35 36/36/36
f 33/33/33 4/4/4 35/35/35
f 2/2/2 4/4/4 33/33/33
f 31/31/31 2/2/2 33/33/33
f 5/5/5 2/2/2 31/31/31
f 29/29/29 5/5/5 31/31/31
f 7/7/7 5/5/5 29/29/29
f 27/27/27 7/7/7 29/29/29
f 9/9/9 7/7/7 27/27/27
f 20/20/20 9/9/9 27/27/27
f 37/37/37 39/39/39 38/38/38
f 40/40/40 37/37/37 38/38/38
f 41/41/41 40/40/40 38/38/38
f 42/42/42 41/41/41 38/38/38
f 43/43/43 42/42/42 38/38/38
f 44/44/44 43/43/43 38/38/38
f 45/45/45 44/44/44 38/38/38
f 39/39/39 45/45/45 38/38/38
f 46/46/46 48/48/48 47/47/47
f 48/48/48 49/49/49 47/47/47
f 49/49/49 50/50/50 47/47/47
f 50/50/50 51/51/51 47/47/47
f 51/51/51 52/52/52 47/47/47
f 52/52/52 53/53/53 47/47/47
f 53/53/53 54/54/54 47/47/47
f 54/54/54 46/46/46 47/47/47
